<svg width="72" height="72" viewBox="0 0 72 72" fill="none" xmlns="http://www.w3.org/2000/svg">
<path d="M29.1568 41.2494C28.6219 40.837 28.0869 40.7144 27.8528 40.6921C27.3624 40.6141 26.9054 40.6141 25.9135 40.8258L23.7958 41.2717L23.6287 52.2388L25.5123 51.8488C26.9277 51.5478 28.3098 51.1577 29.2349 49.9652C29.937 49.0178 31.085 46.6884 30.4051 43.5342C30.1265 42.1856 29.6584 41.6283 29.1457 41.2605" fill="#FFCAE3"/>
<path d="M49.5529 50.2328L44.504 43.4229L41.8737 47.0675L41.818 51.8601L37.7721 52.7072L38.0396 34.8966L42.0632 34.0496L41.9629 41.361L47.9146 32.8236L52.9746 31.7647L46.956 40.1127L54.0112 49.2966L49.5529 50.2328ZM35.2087 25.2C34.9746 24.0743 34.9523 23.1158 34.9635 22.6923C34.9969 20.3183 35.8774 17.7214 37.4935 15.9493C39.2322 14.0768 41.4725 13.475 42.3418 13.2966C44.5152 12.8619 46.1536 13.252 46.9338 13.5195C47.6248 13.7313 48.2712 14.0434 48.8508 14.5003C49.631 15.1133 50.0656 15.7486 50.6006 16.5957L46.722 18.3678C46.4656 17.9666 46.343 17.766 46.1759 17.5765C45.8081 17.1195 44.7604 16.239 43.122 16.5845C42.3975 16.7294 41.1269 17.2533 40.291 18.914C39.8452 19.7833 39.1542 21.7672 39.678 24.2527C40.369 27.4514 42.3752 28.265 43.8464 27.953C44.348 27.8415 45.2842 27.4737 46.0644 26.4037C46.7108 25.5344 46.9338 24.7654 47.1678 23.7623L51.1245 24.9994C50.8347 25.9133 50.7344 26.2366 50.5003 26.7158C49.9096 27.9753 48.2935 30.6948 44.4929 31.5195C43.7238 31.6867 41.6062 31.9988 39.4328 31.018C37.0477 29.9592 35.7325 27.7746 35.1975 25.2112M30.795 53.4873C29.6136 54.2118 28.4545 54.6576 25.6793 55.2372L19.4378 56.5412L19.7498 38.7195L26.4706 37.3152C26.9276 37.2149 27.3734 37.2037 27.8192 37.1592C29.6805 37.0254 30.7839 37.3932 31.5195 37.761C32.7009 38.3406 34.1053 39.5554 34.7517 42.6205C35.6322 46.8335 34.4062 51.2694 30.795 53.4873ZM23.3721 17.6991L27.0167 23.3276L30.1932 16.2725L34.9858 15.2694L29.0229 26.7827L28.9115 34.2948L24.6985 35.1753L24.7876 27.1059L19.148 18.5796L23.361 17.6991H23.3721ZM36 2.67029e-05C16.1164 2.67029e-05 0 16.1164 0 36C0 55.8836 16.1164 72 36 72C55.8836 72 72 55.8836 72 36C72 16.1164 55.8836 2.67029e-05 36 2.67029e-05Z" fill="#FFCAE3"/>
</svg>
