<svg width="569" height="214" viewBox="0 0 569 214" fill="none" xmlns="http://www.w3.org/2000/svg">
<path d="M23.2204 58.1758L22.9748 75.1292L13.4343 77.1212L13.646 58.9228L0.891479 39.6988L10.432 37.7068L18.6767 50.3933L25.8586 34.4866L36.7076 32.2202L23.2162 58.1842L23.2204 58.1758Z" fill="#FFCAE3"/>
<path d="M75.9712 52.7101C75.3487 54.8837 74.5949 56.4579 74.2435 57.2133C73.1171 59.4333 70.5467 63.9997 64.6945 66.7515C63.8687 67.1524 61.8234 67.9754 59.3123 68.4987C52.2236 69.9801 47.4343 68.0302 45.0249 66.321C43.0134 64.8692 39.9899 61.5857 38.6857 55.3943C38.1267 52.7312 38.1225 50.2918 38.1606 49.3802C38.3766 44.1722 40.0789 38.4831 43.3734 34.3936C44.1822 33.3722 45.8506 31.549 48.6835 29.8819C49.793 29.1982 52.41 27.8561 55.9035 27.126C60.7013 26.1215 65.6303 26.5689 69.6532 29.1856C74.8744 32.6336 76.0389 37.8923 76.4709 39.9561C76.9409 42.1844 77.5973 46.924 75.9669 52.7101H75.9712ZM65.1476 37.7868C63.1658 35.1363 59.5876 34.3556 56.3524 35.1996C55.1624 35.5035 54.1419 36.0606 53.837 36.2336C51.8595 37.3858 49.4881 39.6395 48.5184 44.7758C47.9975 47.4388 47.934 51.195 48.4803 53.8032C48.7767 55.2171 49.1917 56.3777 49.9454 57.5256C51.8637 60.4166 54.9549 61.5857 58.3214 60.8218C61.3746 60.1845 63.2336 58.2093 63.9153 57.3821C67.1336 53.474 67.8365 46.523 66.8626 41.9059C66.7356 41.3066 66.3248 39.3525 65.1433 37.7825L65.1476 37.7868Z" fill="#FFCAE3"/>
<path d="M117.309 41.6911C117.263 44.9914 116.975 48.2285 115.323 51.1828C112.905 55.6606 107.773 58.3195 103.03 59.3113C102.103 59.5054 99.6384 59.9655 96.8055 59.7629C91.724 59.4084 88.8911 57.0492 87.6419 55.437C87.0236 54.6604 86.0581 53.044 85.5331 50.5455C85.0969 48.4817 85.0927 46.553 85.0927 44.3964L85.3975 22.0408L95.0482 20.0235L94.739 44.5356C94.7094 44.9408 94.6882 46.19 94.9635 47.4941C95.1117 48.1989 95.3488 48.7771 95.7469 49.3174C96.543 50.3978 98.5756 51.6766 101.684 51.0266C103.594 50.6299 106.117 49.6466 107.083 45.3037C107.248 44.4765 107.451 43.8097 107.489 42.1004L108.078 17.3013L117.674 15.2966L117.309 41.6911Z" fill="#FFCAE3"/>
<path d="M157.64 46.9921L148.265 48.9504L135.51 25.9196L135.235 51.6725L126.402 53.5168L127.164 13.309L136.65 11.3254L149.54 34.4406L149.573 8.6243L158.352 6.78842L157.645 46.9836L157.64 46.9921Z" fill="#FFCAE3"/>
<path d="M203.433 37.4241L194.82 39.222L194.854 35.8668C194.799 35.8794 193.681 37.5887 192.944 38.4201C191.97 39.4752 189.747 41.3575 186.097 42.1214C181.943 42.9317 177.17 42.1721 173.706 39.7749C171.572 38.2935 168.011 34.8961 166.571 28.0463C165.373 22.3403 166.177 16.1617 168.718 11.2027C170.369 7.96562 174.206 2.39889 183.31 0.495487C188.599 -0.610262 194.93 -0.00252174 199.071 3.7241C200.549 5.06197 201.104 6.07909 202.091 7.80102L193.435 12.1058C192.978 11.2955 192.499 10.3713 191.851 9.71287C190.835 8.67465 188.388 7.31567 184.843 8.05847C181.625 8.72951 179.372 10.7342 177.949 13.6969C176.247 17.2294 176.006 22.0449 176.793 25.7926C176.941 26.4975 177.263 28.021 178.195 29.7556C180.075 33.2754 183.454 35.01 187.49 34.1659C190.217 33.5962 192.855 31.7983 193.956 29.1859C194.49 27.9408 194.655 26.5439 194.773 25.2144L186.757 26.89L186.85 19.213L203.751 15.6805L203.429 37.4157L203.433 37.4241Z" fill="#FFCAE3"/>
<path d="M40.6976 111.918C39.7999 110.546 39.3934 109.85 38.8175 109.192C37.5344 107.639 33.935 104.579 28.2691 105.76C25.7707 106.284 21.3625 108.069 18.4788 113.788C16.9374 116.797 14.5491 123.625 16.3445 132.176C18.7498 143.2 25.686 145.998 30.7675 144.939C32.5164 144.571 35.7262 143.297 38.4321 139.612C40.6764 136.629 41.4175 133.961 42.2517 130.492L55.9294 134.742C54.9385 137.895 54.5659 139.013 53.7825 140.651C51.7372 144.977 46.1475 154.38 33.0034 157.216C30.3398 157.773 23.0013 158.87 15.5103 155.498C7.26137 151.847 2.71766 144.301 0.867151 135.502C0.0498775 131.594 -0.0305795 128.319 0.00753175 126.837C0.113396 118.666 3.1877 109.702 8.77311 103.595C14.8074 97.1339 22.5482 95.0828 25.5463 94.454C33.0627 92.9684 38.7328 94.2978 41.4471 95.2052C43.8566 95.9142 46.0882 97.0073 48.0742 98.59C50.7801 100.713 52.2877 102.912 54.117 105.82L40.7018 111.918H40.6976Z" fill="#FFCAE3"/>
<path d="M115.206 105.191C114.575 107.145 113.588 109.082 112.267 110.66C110.649 112.471 108.841 113.804 104.59 116.337L119.059 137.582L103.065 140.925L90.8991 121.536L80.6514 123.676L80.2407 145.69L65.661 148.737L66.6604 87.334L92.5675 81.9192C93.8168 81.6575 94.9813 81.4128 96.2516 81.2355C97.9539 81.054 101.854 80.5856 106.245 82.4425C109.214 83.7298 113.948 86.8149 115.642 94.8674C116.01 96.6105 116.616 100.73 115.201 105.186L115.206 105.191ZM99.0295 94.4454C97.1282 92.8501 95.2396 92.5504 91.0727 93.4198L81.1596 95.4921L80.8674 112.281L93.1985 109.706C93.533 109.639 95.0151 109.242 96.294 108.715C98.7543 107.592 100.139 105.916 100.918 103.414C101.63 101.012 101.346 99.2482 101.138 98.2522C100.999 97.5896 100.613 95.7622 99.0338 94.4454H99.0295Z" fill="#FFCAE3"/>
<path d="M170.982 77.2441L143.076 83.0767L142.885 94.991L169.792 89.3694L169.631 100.583L142.725 106.205L142.462 121.082L174.535 114.38L174.459 126.011L127.806 135.76L128.886 74.3405L171.206 65.4987L170.982 77.2484V77.2441Z" fill="#FFCAE3"/>
<path d="M225.106 115.426L221.909 103.959L200.249 108.483L196.196 121.465L180.787 124.685L204.361 58.5639L220.854 55.1158L239.436 112.429L225.106 115.421V115.426ZM212.36 69.7226L204.013 96.6025L219.008 93.4709L212.36 69.7226Z" fill="#FFCAE3"/>
<path d="M286.977 53.1785L271.733 56.365L271.009 105.837L256.264 108.918L256.988 59.4459L240.829 62.8222L241.35 50.8362L287.502 41.1926L286.982 53.1785H286.977Z" fill="#FFCAE3"/>
<path d="M312.994 97.0588L298.334 100.123L299.164 38.7538L313.824 35.6898L312.994 97.0588Z" fill="#FFCAE3"/>
<path d="M359.309 87.3812L342.146 90.9685L322.735 33.8326L337.314 30.7854L350.242 72.8081L362.641 25.493L378.051 22.2729L359.309 87.3812Z" fill="#FFCAE3"/>
<path d="M429.306 23.2608L401.4 29.0934L401.209 41.0076L428.116 35.386L427.955 46.5997L401.048 52.2212L400.786 67.0982L432.859 60.3962L432.782 72.0276L386.13 81.7768L387.21 20.3571L429.53 11.5154L429.306 23.265V23.2608Z" fill="#FFCAE3"/>
<path d="M479.751 19.567C479.209 18.6385 478.447 17.499 477.587 16.7267C474.335 13.6795 468.707 13.3799 464.625 14.2324C463.875 14.3885 462.376 14.7009 460.75 15.6505C457.828 17.4737 457.168 20.1241 457.447 21.4535C457.515 21.7869 457.773 22.5973 458.468 23.4076C460.255 25.2857 464.096 25.3532 469.563 26.1171C472.688 26.5054 475.931 27.0414 479.044 27.7757C482.241 28.4932 490.524 30.6625 492.582 40.4623C493.717 45.8602 492.362 50.9964 488.948 55.4363C483.012 63.1765 473.831 65.0082 470.998 65.6033C458.667 68.1777 450.194 65.0968 445.925 62.1763C444.413 61.1929 443.435 60.2687 440.992 57.7449L452.209 46.9913C452.362 47.3078 453.293 48.844 454.288 49.8485C456.495 52.0726 461.432 55.2886 469.016 53.7059C472.349 53.0096 474.174 51.7603 475.199 50.8529C477.697 48.6836 477.875 46.2189 477.596 44.8895C477.109 42.9987 475.677 41.5638 471.764 40.7324C466.577 39.6477 461.17 39.5675 455.948 38.3141C453.289 37.6557 445.023 35.5708 443.118 26.5222C442.732 24.6948 442.381 20.9555 444.142 16.5114C446.332 11.2021 451.201 5.41595 463.947 2.75287C466.116 2.30128 476.126 0.296585 484.032 4.79555C486.416 6.20517 488.47 8.11701 490.524 10.0246L479.747 19.5586L479.751 19.567Z" fill="#FFCAE3"/>
<path d="M166.736 203.054C162.683 205.536 158.69 207.06 149.183 209.043L127.773 213.517L128.845 152.578L151.906 147.758C153.477 147.429 155.019 147.366 156.539 147.218C162.912 146.746 166.715 148.016 169.23 149.295C173.274 151.287 178.114 155.435 180.316 165.898C183.348 180.315 179.118 195.474 166.732 203.05L166.736 203.054ZM161.129 161.226C159.279 159.808 157.466 159.411 156.67 159.318C154.976 159.069 153.422 159.052 150.03 159.761L142.755 161.281L142.192 198.809L148.641 197.462C153.52 196.445 158.245 195.112 161.434 191.005C163.856 187.747 167.79 179.787 165.436 169.013C164.466 164.4 162.857 162.5 161.125 161.23L161.129 161.226Z" fill="#FFCAE3"/>
<path d="M235.75 141.85L208.06 147.636L207.874 159.458L234.573 153.878L234.412 165.007L207.713 170.587L207.455 185.346L239.277 178.694L239.201 190.233L192.913 199.906L193.989 138.968L235.979 130.193L235.754 141.85H235.75Z" fill="#FFCAE3"/>
<path d="M298.465 177.85L284.25 180.821L264.91 145.905L264.495 184.948L251.106 187.747L252.262 126.791L266.647 123.786L286.185 158.833L286.236 119.692L299.545 116.911L298.469 177.85H298.465Z" fill="#FFCAE3"/>
<path d="M375.5 161.753L361.945 164.585L362.898 117.43L350.537 166.969L338.303 169.527L327.048 124.238L326.646 171.966L313.006 174.815L313.832 113.927L335.407 109.42L344.422 147.353L354.501 105.431L376.406 100.852L375.5 161.757V161.753Z" fill="#FFCAE3"/>
<path d="M428.32 150.717L425.148 139.339L403.658 143.829L399.635 156.71L384.344 159.905L407.736 94.3027L424.102 90.8842L442.535 147.746L428.316 150.717H428.32ZM415.671 105.373L407.388 132.042L422.269 128.931L415.671 105.369V105.373Z" fill="#FFCAE3"/>
<path d="M500.865 102.62C500.239 104.557 499.26 106.482 497.952 108.043C496.347 109.841 494.551 111.162 490.334 113.678L504.693 134.759L488.822 138.076L476.749 118.839L466.582 120.962L466.171 142.807L451.706 145.829L452.697 84.9072L478.405 79.5346C479.646 79.2771 480.802 79.0323 482.059 78.8551C483.749 78.6736 487.619 78.2094 491.977 80.0495C494.92 81.3282 499.62 84.388 501.301 92.3773C501.666 94.1077 502.267 98.1972 500.865 102.616V102.62ZM484.816 91.9552C482.932 90.3726 481.056 90.0772 476.923 90.9381L467.086 92.9935L466.794 109.651L479.027 107.094C479.358 107.026 480.827 106.634 482.098 106.111C484.541 105.001 485.913 103.333 486.688 100.852C487.395 98.4673 487.111 96.7201 486.904 95.7325C486.764 95.0741 486.383 93.2636 484.816 91.9552Z" fill="#FFCAE3"/>
<path d="M544.791 89.9131L569 121.317L553.709 124.512L536.381 101.215L527.353 113.678L527.175 130.058L513.29 132.961L514.196 72.0565L528.001 69.1739L527.654 94.1841L548.085 64.9746L565.443 61.3493L544.787 89.9173L544.791 89.9131Z" fill="#FFCAE3"/>
</svg>
